<svg width="638" height="108" viewBox="0 0 638 108" fill="none" xmlns="http://www.w3.org/2000/svg">
<path d="M174.094 12.8481H183.653L206.454 71.6942C208.545 76.9714 212.13 79.2615 216.511 79.5602V83.543H187.038V79.5602C196.099 79.0624 198.887 76.7723 196.497 70.5989L191.618 58.0531H166.925L162.145 70.5989C159.756 76.7723 162.544 79.0624 171.605 79.5602V83.543H145.617V79.5602C149.998 79.2615 153.582 77.1706 155.673 71.6942L176.384 18.6232L174.094 12.8481ZM168.817 53.0745H189.726L179.172 25.9914L168.817 53.0745Z" fill="black" fill-opacity="0.9"/>
<path d="M236.965 25.7923V35.1519H248.913V40.6283H236.965V74.6813C236.965 78.0667 239.653 79.2615 246.623 79.7594V83.543H220.536V79.7594C225.016 79.4607 228.203 78.0667 228.203 74.6813V40.6283H220.536V35.1519H228.203V32.2643C228.203 15.3374 236.666 7.27221 246.125 7.27221C251.502 7.27221 255.186 9.86104 255.186 13.8438C255.186 16.831 253.394 18.8224 250.606 18.8224C245.627 18.8224 246.026 12.0516 242.541 12.0516C239.454 12.0516 236.965 15.9348 236.965 25.7923Z" fill="black" fill-opacity="0.9"/>
<path d="M267.541 23.8009V35.1519H282.576V40.6283H267.541V71.7938C267.541 76.0753 271.026 77.9671 275.705 77.9671C277.796 77.9671 280.883 77.5688 282.874 76.9714V81.1534C279.489 83.3439 274.411 84.5387 270.229 84.5387C263.06 84.5387 258.778 80.3568 258.778 75.1791V40.6283H251.51V37.6411C255.99 35.0523 261.268 29.8747 263.956 23.8009H267.541Z" fill="black" fill-opacity="0.9"/>
<path d="M295.884 56.2608C295.884 67.7114 302.754 76.4736 312.811 76.4736C317.491 76.4736 322.17 74.98 326.054 70.5989L328.244 72.4907C324.859 79.3611 318.486 84.5387 309.923 84.5387C297.577 84.5387 288.217 74.5817 288.217 60.2436C288.217 45.6068 297.477 34.1562 309.525 34.1562C322.37 34.1562 327.746 45.7063 327.746 55.066H295.884C295.884 55.4642 295.884 55.8625 295.884 56.2608ZM307.932 38.836C302.854 38.836 298.074 43.0179 296.481 50.5853H318.088C317.988 44.6111 314.603 38.836 307.932 38.836Z" fill="black" fill-opacity="0.9"/>
<path d="M359.806 79.7594V83.543H333.719V79.7594C338.2 79.4607 341.386 78.0667 341.386 74.6813V45.4076L333.819 41.0265V39.3338L348.356 34.1562H350.148V43.4162C354.928 38.836 359.309 34.1562 364.287 34.1562C368.768 34.1562 370.859 38.3381 371.058 41.9227L364.188 46.702H362.694C361.101 43.9141 359.906 42.3209 357.616 42.3209C355.425 42.3209 352.538 44.4119 350.148 46.9012V74.6813C350.148 78.0667 352.837 79.2615 359.806 79.7594Z" fill="black" fill-opacity="0.9"/>
<path d="M423.834 103.457L404.418 84.3396C387.989 82.4478 375.841 67.4127 375.841 50.0874C375.841 27.2858 391.772 12.8481 408.6 12.8481C426.821 12.8481 440.761 28.7794 440.761 47.2995C440.761 66.417 429.51 79.6598 416.068 83.4435L434.687 101.067V103.457H423.834ZM430.107 49.9879C430.107 34.7536 422.54 18.4241 406.907 18.4241C393.963 18.4241 386.495 30.3725 386.495 47.399C386.495 62.6333 393.963 78.9628 409.695 78.9628C422.639 78.9628 430.107 67.0144 430.107 49.9879Z" fill="black" fill-opacity="0.9"/>
<path d="M489.903 35.1519V73.0882C489.903 76.2744 490.898 77.768 494.184 78.1663L497.868 78.6641V82.3482L483.331 84.5387H481.24V76.374C477.257 80.2572 472.08 84.5387 465.906 84.5387C457.542 84.5387 452.763 77.9671 452.763 70.3998V45.5072C452.763 41.624 450.274 41.2257 445.395 40.6283V36.6454L461.525 35.1519V66.5165C461.525 74.3826 465.01 77.768 471.084 77.768C474.868 77.768 478.751 75.5774 481.141 72.9886V45.5072C481.141 41.624 478.651 41.2257 473.772 40.6283V36.6454L489.903 35.1519Z" fill="black" fill-opacity="0.9"/>
<path d="M510.388 56.2608C510.388 67.7114 517.258 76.4736 527.315 76.4736C531.995 76.4736 536.674 74.98 540.558 70.5989L542.748 72.4907C539.363 79.3611 532.99 84.5387 524.427 84.5387C512.081 84.5387 502.721 74.5817 502.721 60.2436C502.721 45.6068 511.981 34.1562 524.029 34.1562C536.874 34.1562 542.25 45.7063 542.25 55.066H510.388C510.388 55.4642 510.388 55.8625 510.388 56.2608ZM522.436 38.836C517.358 38.836 512.578 43.0179 510.985 50.5853H532.592C532.492 44.6111 529.107 38.836 522.436 38.836Z" fill="black" fill-opacity="0.9"/>
<path d="M574.31 79.7594V83.543H548.223V79.7594C552.704 79.4607 555.89 78.0667 555.89 74.6813V45.4076L548.323 41.0265V39.3338L562.86 34.1562H564.652V43.4162C569.431 38.836 573.813 34.1562 578.791 34.1562C583.272 34.1562 585.363 38.3381 585.562 41.9227L578.692 46.702H577.198C575.605 43.9141 574.41 42.3209 572.12 42.3209C569.929 42.3209 567.042 44.4119 564.652 46.9012V74.6813C564.652 78.0667 567.34 79.2615 574.31 79.7594Z" fill="black" fill-opacity="0.9"/>
<path d="M609.861 83.7422L593.731 44.0136C592.337 40.6283 590.544 39.2343 587.059 38.9356V35.1519H610.558V38.9356C604.285 39.4334 601.497 40.927 603.389 45.8059L613.943 73.1877L624.498 45.8059C626.39 40.927 623.602 39.4334 617.329 38.9356V35.1519H637.442V38.9356C633.957 39.2343 632.165 40.6283 630.771 44.0136L612.549 88.5216C607.969 99.773 603.488 107.44 595.224 107.44C590.942 107.44 587.159 104.453 587.159 100.57C587.159 97.0846 589.549 94.4958 592.834 94.4958C598.311 94.4958 597.315 99.9721 600.003 99.9721C601.895 99.9721 603.688 98.379 607.77 88.6211L609.861 83.7422Z" fill="black" fill-opacity="0.9"/>
<path d="M70.0041 0H53.1375C52.6429 0 52.2419 0.400784 52.2419 0.895177V6.0984C52.2419 6.5928 52.6429 6.99358 53.1375 6.99358H70.0041C70.4987 6.99358 70.8997 6.5928 70.8997 6.0984V0.895177C70.8997 0.400784 70.4987 0 70.0041 0Z" fill="black" fill-opacity="0.9"/>
<path d="M63.4739 12.1222H46.6072C46.1126 12.1222 45.7117 12.523 45.7117 13.0174V18.2206C45.7117 18.715 46.1126 19.1158 46.6072 19.1158H63.4739C63.9685 19.1158 64.3695 18.715 64.3695 18.2206V13.0174C64.3695 12.523 63.9685 12.1222 63.4739 12.1222Z" fill="black" fill-opacity="0.9"/>
<path d="M69.0712 25.1769H40.077C39.5824 25.1769 39.1814 25.5777 39.1814 26.0721V31.2753C39.1814 31.7697 39.5824 32.1705 40.077 32.1705H69.0712C69.5659 32.1705 69.9668 31.7697 69.9668 31.2753V26.0721C69.9668 25.5777 69.5659 25.1769 69.0712 25.1769Z" fill="black" fill-opacity="0.9"/>
<path d="M50.4134 37.2991H34.4796C33.985 37.2991 33.5841 37.6999 33.5841 38.1943V43.3975C33.5841 43.8919 33.985 44.2927 34.4796 44.2927H50.4134C50.908 44.2927 51.309 43.8919 51.309 43.3975V38.1943C51.309 37.6999 50.908 37.2991 50.4134 37.2991Z" fill="black" fill-opacity="0.9"/>
<path d="M81.1988 50.3538H27.0165C26.5219 50.3538 26.1209 50.7546 26.1209 51.2489V56.4522C26.1209 56.9466 26.5219 57.3474 27.0165 57.3474H81.1988C81.6934 57.3474 82.0944 56.9466 82.0944 56.4522V51.2489C82.0944 50.7546 81.6934 50.3538 81.1988 50.3538Z" fill="black" fill-opacity="0.9"/>
<path d="M38.2858 63.4085H21.4192C20.9246 63.4085 20.5236 63.8092 20.5236 64.3036V69.5069C20.5236 70.0012 20.9246 70.402 21.4192 70.402H38.2858C38.7805 70.402 39.1814 70.0012 39.1814 69.5069V64.3036C39.1814 63.8092 38.7805 63.4085 38.2858 63.4085Z" fill="black" fill-opacity="0.9"/>
<path d="M97.058 63.4085H82.0571C81.5625 63.4085 81.1615 63.8092 81.1615 64.3036V69.5069C81.1615 70.0012 81.5625 70.402 82.0571 70.402H97.058C97.5526 70.402 97.9535 70.0012 97.9535 69.5069V64.3036C97.9535 63.8092 97.5526 63.4085 97.058 63.4085Z" fill="black" fill-opacity="0.9"/>
<path d="M33.6214 76.4631H16.7547C16.2601 76.4631 15.8591 76.8639 15.8591 77.3583V82.5615C15.8591 83.0559 16.2601 83.4567 16.7547 83.4567H33.6214C34.116 83.4567 34.517 83.0559 34.517 82.5615V77.3583C34.517 76.8639 34.116 76.4631 33.6214 76.4631Z" fill="black" fill-opacity="0.9"/>
<path d="M104.521 76.4631H86.7215C86.2269 76.4631 85.826 76.8639 85.826 77.3583V82.5615C85.826 83.0559 86.2269 83.4567 86.7215 83.4567H104.521C105.016 83.4567 105.417 83.0559 105.417 82.5615V77.3583C105.417 76.8639 105.016 76.4631 104.521 76.4631Z" fill="black" fill-opacity="0.9"/>
<path d="M41.0845 88.5853H0.895574C0.400962 88.5853 0 88.9861 0 89.4805V94.6837C0 95.1781 0.400962 95.5789 0.895574 95.5789H41.0845C41.5791 95.5789 41.9801 95.1781 41.9801 94.6837V89.4805C41.9801 88.9861 41.5791 88.5853 41.0845 88.5853Z" fill="black" fill-opacity="0.9"/>
<path d="M116.649 88.5853H81.1242C80.6296 88.5853 80.2286 88.9861 80.2286 89.4805V94.6837C80.2286 95.1781 80.6296 95.5789 81.1242 95.5789H116.649C117.143 95.5789 117.544 95.1781 117.544 94.6837V89.4805C117.544 88.9861 117.143 88.5853 116.649 88.5853Z" fill="black" fill-opacity="0.9"/>
</svg>
